<svg width="1206" height="677" viewBox="0 0 1206 677" fill="none" xmlns="http://www.w3.org/2000/svg">
<path d="M1 1L15 24H65L90.5 67H140L165 109.5L215 110L240 152H290L315 194H365L390 236H440L465 278H516L540 318.5H591L616 361H666.5L691 402.5H741L766 444.5H816L841 486.5H891L915.5 528H966L991 569.5H1041L1066 612H1116L1141 653.5H1192L1206 676.5" stroke="#79EBD6"/>
<path d="M1 1L15 24H65L90.5 67H140L165 109.5L215 110L240 152H290L315 194H365L390 236H440L465 278H516L540 318.5H591L616 361H666.5L691 402.5H741L766 444.5H816L841 486.5H891L915.5 528H966L991 569.5H1041L1066 612H1116L1141 653.5H1192L1206 676.5" stroke="#3287B7" stroke-opacity="0.2"/>
<path d="M1 1L15 24H65L90.5 67H140L165 109.5L215 110L240 152H290L315 194H365L390 236H440L465 278H516L540 318.5H591L616 361H666.5L691 402.5H741L766 444.5H816L841 486.5H891L915.5 528H966L991 569.5H1041L1066 612H1116L1141 653.5H1192L1206 676.5" stroke="#359AA0" stroke-opacity="0.2"/>
</svg>
