<svg width="1131" height="633" viewBox="0 0 1131 633" fill="none" xmlns="http://www.w3.org/2000/svg">
<path d="M1 -43L15 -20H65L90.5 23H140L165 65.5L215 66L240 108H290L315 150H365L390 192H440L465 234H516L540 274.5H591L616 317H666.5L691 358.5H741L766 400.5H816L841 442.5H891L915.5 484H966L991 525.5H1041L1066 568H1116L1141 609.5H1192L1206 632.5" stroke="#79EBD6"/>
<path d="M1 -43L15 -20H65L90.5 23H140L165 65.5L215 66L240 108H290L315 150H365L390 192H440L465 234H516L540 274.5H591L616 317H666.5L691 358.5H741L766 400.5H816L841 442.5H891L915.5 484H966L991 525.5H1041L1066 568H1116L1141 609.5H1192L1206 632.5" stroke="#3287B7" stroke-opacity="0.2"/>
<path d="M1 -43L15 -20H65L90.5 23H140L165 65.5L215 66L240 108H290L315 150H365L390 192H440L465 234H516L540 274.5H591L616 317H666.5L691 358.5H741L766 400.5H816L841 442.5H891L915.5 484H966L991 525.5H1041L1066 568H1116L1141 609.5H1192L1206 632.5" stroke="#359AA0" stroke-opacity="0.2"/>
</svg>
